<svg width="113" height="42" viewBox="0 0 113 42" fill="none" xmlns="http://www.w3.org/2000/svg">
<path d="M44.7293 0H42.4081H38.1108V4.6417H42.4081V40.9731H47.0498V0H44.7293Z" fill="#F5F5F5"/>
<path d="M80.1136 26.7043C80.1136 16.905 74.6697 11.06 66.3033 11.06C57.9369 11.06 52.4356 16.6187 52.4356 26.4173C52.4356 36.2159 57.8795 41.5457 66.3033 41.5457C72.9505 41.5457 77.9359 37.7062 79.3114 32.3771H74.1538C73.0079 34.8411 70.658 37.0188 66.3033 37.0188C60.6872 37.0188 57.8221 33.4656 57.2495 28.3661H80.1143V26.7043H80.1136ZM57.3062 23.954C57.9936 19.026 60.9735 15.5302 66.3033 15.5302C71.6331 15.5302 74.4408 18.9686 75.1282 23.954H57.3062Z" fill="#F5F5F5"/>
<path d="M98.3941 11.06C89.9703 11.06 84.5264 16.6187 84.5264 26.4173C84.5264 36.2159 89.9703 41.5457 98.3941 41.5457C106.818 41.5457 112.204 36.3881 112.204 26.4173C112.204 16.4465 106.761 11.06 98.3941 11.06ZM98.3941 37.1336C92.3769 37.1336 89.1107 32.4345 89.1107 26.3606C89.1107 20.2867 92.3769 15.4154 98.3941 15.4154C104.411 15.4154 107.62 20.1719 107.62 26.3606C107.62 32.5493 104.469 37.1336 98.3941 37.1336Z" fill="#F5F5F5"/>
<path d="M24.129 0H19.6126H14.6734L6.4659 23.9533H11.4646L18.1118 4.4128H20.5184L27.1656 23.9533H18.0026H11.4646L9.9169 28.3661H19.4929H28.6559L32.9539 40.9731H38.1108L24.129 0Z" fill="#F5F5F5"/>
<path d="M0.634201 40.9731H5.6196L9.9169 28.3661H4.9539L0.634201 40.9731Z" fill="#F5F5F5"/>
<path d="M1.512 23.9533L0 28.3661H4.9539L6.4659 23.9533H1.512Z" fill="#F5F5F5"/>
</svg>
