<svg width="193" height="46" viewBox="0 0 193 46" fill="none" xmlns="http://www.w3.org/2000/svg">
<path d="M45.3271 4.2268H43.0059H38.7086V8.8685H43.0059V45.1999H47.6476V4.2268H45.3271Z" fill="#F5F5F5"/>
<path d="M80.7114 30.9311C80.7114 21.1318 75.2675 15.2868 66.9011 15.2868C58.5347 15.2868 53.0334 20.8455 53.0334 30.6441C53.0334 40.4427 58.4773 45.7725 66.9011 45.7725C73.5483 45.7725 78.5337 41.933 79.9092 36.6039H74.7516C73.6057 39.0679 71.2558 41.2456 66.9011 41.2456C61.285 41.2456 58.4199 37.6924 57.8473 32.5929H80.7121V30.9311H80.7114ZM57.904 28.1808C58.5914 23.2528 61.5713 19.757 66.9011 19.757C72.2309 19.757 75.0386 23.1954 75.726 28.1808H57.904Z" fill="#F5F5F5"/>
<path d="M98.9919 15.2868C90.5681 15.2868 85.1242 20.8455 85.1242 30.6441C85.1242 40.4427 90.5681 45.7725 98.9919 45.7725C107.416 45.7725 112.802 40.6149 112.802 30.6441C112.802 20.6733 107.358 15.2868 98.9919 15.2868ZM98.9919 41.3604C92.9747 41.3604 89.7085 36.6613 89.7085 30.5874C89.7085 24.5135 92.9747 19.6422 98.9919 19.6422C105.009 19.6422 108.218 24.3987 108.218 30.5874C108.218 36.7761 105.067 41.3604 98.9919 41.3604Z" fill="#F5F5F5"/>
<path d="M24.7268 4.2268H20.2104H15.2712L7.0637 28.1801H12.0624L18.7096 8.6396H21.1162L27.7634 28.1801H18.6004H12.0624L10.5147 32.5929H20.0907H29.2537L33.5517 45.1999H38.7086L24.7268 4.2268Z" fill="#F5F5F5"/>
<path d="M1.232 45.1999H6.2174L10.5147 32.5929H5.5517L1.232 45.1999Z" fill="#F5F5F5"/>
<path d="M2.1098 28.1801L0.597799 32.5929H5.5517L7.0637 28.1801H2.1098Z" fill="#F5F5F5"/>
<path d="M121.685 0H120.004H118.167L115.114 8.76916H116.973L119.446 1.6155H120.341L122.814 8.76916H119.406H116.973L116.398 10.3847H119.96H123.369L124.967 15H126.886L121.685 0Z" fill="#F5F5F5"/>
<path d="M112.945 15H114.799L116.398 10.3847H114.551L112.945 15Z" fill="#F5F5F5"/>
<path d="M113.271 8.76917L112.709 10.3847H114.551L115.114 8.76917H113.271Z" fill="#F5F5F5"/>
<path d="M131.44 13.74C132.34 13.74 133.834 13.524 133.834 12.336C133.834 11.328 132.412 11.022 131.422 11.022C130.108 11.022 127.48 10.518 127.48 8.502C127.48 6 130 5.55 131.404 5.55C133.384 5.55 135.022 6.342 135.328 8.574H133.816C133.672 7.224 132.61 6.954 131.404 6.954C130.414 6.954 128.92 7.098 128.92 8.448C128.92 9.33 130.486 9.636 131.422 9.636C132.79 9.636 135.274 10.122 135.274 12.336C135.274 14.712 132.682 15.144 131.44 15.144C129.46 15.144 127.804 14.352 127.498 12.12H129.064C129.262 13.362 130.108 13.74 131.44 13.74ZM140.668 13.74C141.568 13.74 143.062 13.524 143.062 12.336C143.062 11.328 141.64 11.022 140.65 11.022C139.336 11.022 136.708 10.518 136.708 8.502C136.708 6 139.228 5.55 140.632 5.55C142.612 5.55 144.25 6.342 144.556 8.574H143.044C142.9 7.224 141.838 6.954 140.632 6.954C139.642 6.954 138.148 7.098 138.148 8.448C138.148 9.33 139.714 9.636 140.65 9.636C142.018 9.636 144.502 10.122 144.502 12.336C144.502 14.712 141.91 15.144 140.668 15.144C138.688 15.144 137.032 14.352 136.726 12.12H138.292C138.49 13.362 139.336 13.74 140.668 13.74ZM146.855 15V5.712H148.331V15H146.855ZM146.855 3.786V2.13H148.331V3.786H146.855ZM154.221 13.74C155.121 13.74 156.615 13.524 156.615 12.336C156.615 11.328 155.193 11.022 154.203 11.022C152.889 11.022 150.261 10.518 150.261 8.502C150.261 6 152.781 5.55 154.185 5.55C156.165 5.55 157.803 6.342 158.109 8.574H156.597C156.453 7.224 155.391 6.954 154.185 6.954C153.195 6.954 151.701 7.098 151.701 8.448C151.701 9.33 153.267 9.636 154.203 9.636C155.571 9.636 158.055 10.122 158.055 12.336C158.055 14.712 155.463 15.144 154.221 15.144C152.241 15.144 150.585 14.352 150.279 12.12H151.845C152.043 13.362 152.889 13.74 154.221 13.74ZM163.342 15.054C161.542 15.054 160.57 13.308 160.57 11.67V7.098H159.166V5.712C160.372 5.712 160.57 5.208 160.57 3.66H162.046V5.712H164.638V7.098H162.046V11.49C162.046 12.426 162.586 13.596 163.45 13.596L164.638 13.614V15L163.342 15.054ZM169.842 15.108C167.538 15.108 166.206 13.902 166.206 12.048C166.206 10.194 167.412 8.97 169.806 8.988C170.742 8.988 172.398 9.348 172.434 9.366C172.434 9.366 172.452 9.348 172.47 9.366V8.988C172.47 7.332 171.426 6.954 169.806 6.954C168.996 6.954 167.7 7.404 167.286 8.034L166.764 6.504C167.412 5.928 168.816 5.55 169.842 5.55C172.38 5.55 173.946 6.468 173.946 9.06V15H172.524V13.47C172.056 14.586 170.76 15.108 169.842 15.108ZM167.646 12.048C167.646 13.056 168.204 13.686 169.878 13.686C171.084 13.686 172.488 13.056 172.488 11.688V10.734C171.714 10.518 170.598 10.356 169.824 10.356C168.096 10.356 167.646 10.986 167.646 12.048ZM182.554 9.636C182.554 7.962 182.032 6.954 180.34 6.954C178.99 6.954 177.532 8.304 177.532 10.104V15H176.074V5.712H177.532V7.152C178.144 6.36 179.08 5.568 180.43 5.568C182.662 5.568 184.03 7.026 184.03 9.312V15H182.554V9.636ZM189.638 15.054C187.838 15.054 186.866 13.308 186.866 11.67V7.098H185.462V5.712C186.668 5.712 186.866 5.208 186.866 3.66H188.342V5.712H190.934V7.098H188.342V11.49C188.342 12.426 188.882 13.596 189.746 13.596L190.934 13.614V15L189.638 15.054Z" fill="#F5F5F5"/>
</svg>
